<svg fill="#000000" xmlns="http://www.w3.org/2000/svg"  viewBox="0 0 80 80" width="80px" height="80px"><path fill="none" stroke="#000000" stroke-miterlimit="10" stroke-width="2" d="M50 8A22 22 0 1 0 50 52A22 22 0 1 0 50 8Z"/><path d="M50 11A1 1 0 1 0 50 13 1 1 0 1 0 50 11zM50 47A1 1 0 1 0 50 49 1 1 0 1 0 50 47zM68 29A1 1 0 1 0 68 31 1 1 0 1 0 68 29zM32 29A1 1 0 1 0 32 31 1 1 0 1 0 32 29z"/><path d="M45.341 11.613A1 1 0 1 0 45.341 13.613A1 1 0 1 0 45.341 11.613Z" transform="rotate(-14.999 45.345 12.614)"/><path d="M54.659 46.387A1 1 0 1 0 54.659 48.387A1 1 0 1 0 54.659 46.387Z" transform="rotate(-14.999 54.663 47.39)"/><path d="M67.387 24.341A1 1 0 1 0 67.387 26.341A1 1 0 1 0 67.387 24.341Z" transform="rotate(-14.999 67.392 25.343)"/><path d="M32.613 33.659A1 1 0 1 0 32.613 35.659A1 1 0 1 0 32.613 33.659Z" transform="rotate(-14.999 32.616 34.661)"/><path d="M41 13.412A1 1 0 1 0 41 15.412A1 1 0 1 0 41 13.412Z" transform="rotate(-30 40.999 14.413)"/><path d="M59 44.588A1 1 0 1 0 59 46.588A1 1 0 1 0 59 44.588Z" transform="rotate(-30 58.997 45.59)"/><path d="M65.588 20A1 1 0 1 0 65.588 22A1 1 0 1 0 65.588 20Z" transform="rotate(-30 65.587 21.003)"/><path d="M34.412 38A1 1 0 1 0 34.412 40A1 1 0 1 0 34.412 38Z" transform="rotate(-30 34.41 39.001)"/><path d="M37.272 16.272A1 1 0 1 0 37.272 18.272A1 1 0 1 0 37.272 16.272Z" transform="rotate(-45.001 37.272 17.273)"/><path d="M62.728 41.728A1 1 0 1 0 62.728 43.728A1 1 0 1 0 62.728 41.728Z" transform="rotate(-45.001 62.728 42.729)"/><path d="M62.728 16.272A1 1 0 1 0 62.728 18.272A1 1 0 1 0 62.728 16.272Z" transform="rotate(-45.001 62.728 17.273)"/><path d="M37.272 41.728A1 1 0 1 0 37.272 43.728A1 1 0 1 0 37.272 41.728Z" transform="rotate(-45.001 37.272 42.729)"/><path d="M34.412 20A1 1 0 1 0 34.412 22A1 1 0 1 0 34.412 20Z" transform="rotate(-60 34.412 21)"/><path d="M65.588 38A1 1 0 1 0 65.588 40A1 1 0 1 0 65.588 38Z" transform="rotate(-60 65.59 39.002)"/><path d="M59 13.412A1 1 0 1 0 59 15.412A1 1 0 1 0 59 13.412Z" transform="rotate(-60 59.001 14.413)"/><path d="M41 44.588A1 1 0 1 0 41 46.588A1 1 0 1 0 41 44.588Z" transform="rotate(-60 41 45.59)"/><path d="M32.613 24.341A1 1 0 1 0 32.613 26.341A1 1 0 1 0 32.613 24.341Z" transform="rotate(-75.001 32.614 25.342)"/><path d="M67.387 33.659A1 1 0 1 0 67.387 35.659A1 1 0 1 0 67.387 33.659Z" transform="rotate(-75.001 67.388 34.66)"/><path d="M54.659 11.613A1 1 0 1 0 54.659 13.613A1 1 0 1 0 54.659 11.613Z" transform="rotate(-75.001 54.66 12.614)"/><path d="M45.341 46.387A1 1 0 1 0 45.341 48.387A1 1 0 1 0 45.341 46.387Z" transform="rotate(-75.001 45.342 47.388)"/><path fill="none" stroke="#000000" stroke-miterlimit="10" stroke-width="2" d="M36.25 47.25L30.884 52.616M27.384 49.116L32.75 43.75M30.757 52.414l-3.172-3.172c-.781-.781-2.047-.781-2.828 0L8.586 65.414c-.781.781-.781 2.047 0 2.828l3.172 3.172c.781.781 2.047.781 2.828 0l16.172-16.172C31.538 54.462 31.538 53.195 30.757 52.414zM23 51L26 54M20 54L23 57M17 57L20 60M14 60L17 63M11 63L14 66"/></svg>